<mxfile host="app.diagrams.net" modified="2023-01-17T15:26:15.229Z" agent="5.0 (Windows NT 10.0; Win64; x64) AppleWebKit/537.36 (KHTML, like Gecko) Chrome/108.0.0.0 Safari/537.36" etag="Ml0Q3HvJGoYXDxSNArl8" version="20.8.5" type="github">
  <diagram id="rw2Sq1U-5E8oASNh7x8d" name="PÃ¡gina-1">
    <mxGraphModel dx="2171" dy="1378" grid="1" gridSize="10" guides="1" tooltips="1" connect="1" arrows="1" fold="1" page="1" pageScale="1" pageWidth="827" pageHeight="1169" math="0" shadow="0">
      <root>
        <mxCell id="0" />
        <mxCell id="1" parent="0" />
        <mxCell id="j6FeLxDgwrB_pysaz1K0-27" style="edgeStyle=orthogonalEdgeStyle;rounded=0;orthogonalLoop=1;jettySize=auto;html=1;exitX=0.75;exitY=1;exitDx=0;exitDy=0;entryX=0.5;entryY=0;entryDx=0;entryDy=0;" parent="1" source="j6FeLxDgwrB_pysaz1K0-2" target="j6FeLxDgwrB_pysaz1K0-3" edge="1">
          <mxGeometry relative="1" as="geometry" />
        </mxCell>
        <mxCell id="g2wx1lbz-RBGt1lOs8mh-1" style="edgeStyle=orthogonalEdgeStyle;rounded=0;orthogonalLoop=1;jettySize=auto;html=1;exitX=0.25;exitY=1;exitDx=0;exitDy=0;" parent="1" source="j6FeLxDgwrB_pysaz1K0-2" target="j6FeLxDgwrB_pysaz1K0-6" edge="1">
          <mxGeometry relative="1" as="geometry">
            <Array as="points">
              <mxPoint x="230" y="250" />
              <mxPoint x="190" y="250" />
            </Array>
          </mxGeometry>
        </mxCell>
        <mxCell id="j6FeLxDgwrB_pysaz1K0-2" value="CASE A" style="rounded=1;whiteSpace=wrap;html=1;" parent="1" vertex="1">
          <mxGeometry x="200" y="120" width="120" height="60" as="geometry" />
        </mxCell>
        <mxCell id="j6FeLxDgwrB_pysaz1K0-19" style="edgeStyle=orthogonalEdgeStyle;rounded=0;orthogonalLoop=1;jettySize=auto;html=1;exitX=0.5;exitY=1;exitDx=0;exitDy=0;entryX=0.25;entryY=0;entryDx=0;entryDy=0;" parent="1" source="j6FeLxDgwrB_pysaz1K0-3" target="j6FeLxDgwrB_pysaz1K0-4" edge="1">
          <mxGeometry relative="1" as="geometry" />
        </mxCell>
        <mxCell id="j6FeLxDgwrB_pysaz1K0-3" value="IF CANTIDAD &amp;gt;=10" style="rounded=1;whiteSpace=wrap;html=1;" parent="1" vertex="1">
          <mxGeometry x="270" y="220" width="120" height="60" as="geometry" />
        </mxCell>
        <mxCell id="j6FeLxDgwrB_pysaz1K0-49" style="edgeStyle=orthogonalEdgeStyle;rounded=0;orthogonalLoop=1;jettySize=auto;html=1;exitX=0.5;exitY=1;exitDx=0;exitDy=0;entryX=0.25;entryY=0;entryDx=0;entryDy=0;" parent="1" source="j6FeLxDgwrB_pysaz1K0-4" target="j6FeLxDgwrB_pysaz1K0-45" edge="1">
          <mxGeometry relative="1" as="geometry" />
        </mxCell>
        <mxCell id="j6FeLxDgwrB_pysaz1K0-4" value="Descuento 0.1" style="rounded=1;whiteSpace=wrap;html=1;" parent="1" vertex="1">
          <mxGeometry x="350" y="351" width="120" height="60" as="geometry" />
        </mxCell>
        <mxCell id="j6FeLxDgwrB_pysaz1K0-48" style="edgeStyle=orthogonalEdgeStyle;rounded=0;orthogonalLoop=1;jettySize=auto;html=1;exitX=0.5;exitY=1;exitDx=0;exitDy=0;entryX=0;entryY=0.5;entryDx=0;entryDy=0;" parent="1" source="j6FeLxDgwrB_pysaz1K0-6" target="j6FeLxDgwrB_pysaz1K0-45" edge="1">
          <mxGeometry relative="1" as="geometry" />
        </mxCell>
        <mxCell id="j6FeLxDgwrB_pysaz1K0-6" value="Descuento 0.05&lt;br&gt;" style="rounded=1;whiteSpace=wrap;html=1;" parent="1" vertex="1">
          <mxGeometry x="130" y="350" width="120" height="60" as="geometry" />
        </mxCell>
        <mxCell id="j6FeLxDgwrB_pysaz1K0-28" style="edgeStyle=orthogonalEdgeStyle;rounded=0;orthogonalLoop=1;jettySize=auto;html=1;exitX=0.25;exitY=1;exitDx=0;exitDy=0;entryX=0.75;entryY=0;entryDx=0;entryDy=0;" parent="1" source="j6FeLxDgwrB_pysaz1K0-7" target="j6FeLxDgwrB_pysaz1K0-4" edge="1">
          <mxGeometry relative="1" as="geometry">
            <mxPoint x="490" y="220" as="targetPoint" />
          </mxGeometry>
        </mxCell>
        <mxCell id="j6FeLxDgwrB_pysaz1K0-29" style="edgeStyle=orthogonalEdgeStyle;rounded=0;orthogonalLoop=1;jettySize=auto;html=1;exitX=0.75;exitY=1;exitDx=0;exitDy=0;" parent="1" source="j6FeLxDgwrB_pysaz1K0-7" target="j6FeLxDgwrB_pysaz1K0-8" edge="1">
          <mxGeometry relative="1" as="geometry" />
        </mxCell>
        <mxCell id="j6FeLxDgwrB_pysaz1K0-7" value="CASE B" style="rounded=1;whiteSpace=wrap;html=1;" parent="1" vertex="1">
          <mxGeometry x="510" y="120" width="120" height="60" as="geometry" />
        </mxCell>
        <mxCell id="j6FeLxDgwrB_pysaz1K0-25" style="edgeStyle=orthogonalEdgeStyle;rounded=0;orthogonalLoop=1;jettySize=auto;html=1;exitX=0.5;exitY=1;exitDx=0;exitDy=0;entryX=0.25;entryY=0;entryDx=0;entryDy=0;" parent="1" source="j6FeLxDgwrB_pysaz1K0-8" target="j6FeLxDgwrB_pysaz1K0-9" edge="1">
          <mxGeometry relative="1" as="geometry" />
        </mxCell>
        <mxCell id="j6FeLxDgwrB_pysaz1K0-8" value="IF CANTIDAD &amp;gt;=20" style="rounded=1;whiteSpace=wrap;html=1;" parent="1" vertex="1">
          <mxGeometry x="580" y="230" width="120" height="60" as="geometry" />
        </mxCell>
        <mxCell id="j6FeLxDgwrB_pysaz1K0-52" style="edgeStyle=orthogonalEdgeStyle;rounded=0;orthogonalLoop=1;jettySize=auto;html=1;exitX=0.5;exitY=1;exitDx=0;exitDy=0;entryX=0.5;entryY=0;entryDx=0;entryDy=0;" parent="1" source="j6FeLxDgwrB_pysaz1K0-9" target="j6FeLxDgwrB_pysaz1K0-45" edge="1">
          <mxGeometry relative="1" as="geometry" />
        </mxCell>
        <mxCell id="j6FeLxDgwrB_pysaz1K0-9" value="Descuento 0.15" style="rounded=1;whiteSpace=wrap;html=1;" parent="1" vertex="1">
          <mxGeometry x="660" y="350" width="120" height="60" as="geometry" />
        </mxCell>
        <mxCell id="j6FeLxDgwrB_pysaz1K0-31" style="edgeStyle=orthogonalEdgeStyle;rounded=0;orthogonalLoop=1;jettySize=auto;html=1;exitX=0.75;exitY=1;exitDx=0;exitDy=0;entryX=0.5;entryY=0;entryDx=0;entryDy=0;" parent="1" source="j6FeLxDgwrB_pysaz1K0-12" target="j6FeLxDgwrB_pysaz1K0-13" edge="1">
          <mxGeometry relative="1" as="geometry" />
        </mxCell>
        <mxCell id="j6FeLxDgwrB_pysaz1K0-12" value="CASE C" style="rounded=1;whiteSpace=wrap;html=1;" parent="1" vertex="1">
          <mxGeometry x="820" y="120" width="120" height="60" as="geometry" />
        </mxCell>
        <mxCell id="j6FeLxDgwrB_pysaz1K0-23" style="edgeStyle=orthogonalEdgeStyle;rounded=0;orthogonalLoop=1;jettySize=auto;html=1;exitX=0.5;exitY=1;exitDx=0;exitDy=0;entryX=0.5;entryY=0;entryDx=0;entryDy=0;" parent="1" source="j6FeLxDgwrB_pysaz1K0-13" target="j6FeLxDgwrB_pysaz1K0-14" edge="1">
          <mxGeometry relative="1" as="geometry" />
        </mxCell>
        <mxCell id="j6FeLxDgwrB_pysaz1K0-13" value="IF CANTIDAD &amp;gt;=30" style="rounded=1;whiteSpace=wrap;html=1;" parent="1" vertex="1">
          <mxGeometry x="900" y="220" width="120" height="60" as="geometry" />
        </mxCell>
        <mxCell id="j6FeLxDgwrB_pysaz1K0-51" style="edgeStyle=orthogonalEdgeStyle;rounded=0;orthogonalLoop=1;jettySize=auto;html=1;exitX=0.5;exitY=1;exitDx=0;exitDy=0;entryX=0.75;entryY=0;entryDx=0;entryDy=0;" parent="1" source="j6FeLxDgwrB_pysaz1K0-14" target="j6FeLxDgwrB_pysaz1K0-45" edge="1">
          <mxGeometry relative="1" as="geometry" />
        </mxCell>
        <mxCell id="j6FeLxDgwrB_pysaz1K0-14" value="Descuento 0.2" style="rounded=1;whiteSpace=wrap;html=1;" parent="1" vertex="1">
          <mxGeometry x="900" y="350" width="120" height="60" as="geometry" />
        </mxCell>
        <mxCell id="j6FeLxDgwrB_pysaz1K0-24" style="edgeStyle=orthogonalEdgeStyle;rounded=0;orthogonalLoop=1;jettySize=auto;html=1;exitX=0.25;exitY=1;exitDx=0;exitDy=0;entryX=0.75;entryY=0;entryDx=0;entryDy=0;" parent="1" source="j6FeLxDgwrB_pysaz1K0-12" target="j6FeLxDgwrB_pysaz1K0-9" edge="1">
          <mxGeometry relative="1" as="geometry">
            <mxPoint x="800" y="280" as="sourcePoint" />
          </mxGeometry>
        </mxCell>
        <mxCell id="j6FeLxDgwrB_pysaz1K0-50" style="edgeStyle=orthogonalEdgeStyle;rounded=0;orthogonalLoop=1;jettySize=auto;html=1;exitX=0.5;exitY=1;exitDx=0;exitDy=0;entryX=1;entryY=0.75;entryDx=0;entryDy=0;" parent="1" source="j6FeLxDgwrB_pysaz1K0-18" target="j6FeLxDgwrB_pysaz1K0-45" edge="1">
          <mxGeometry relative="1" as="geometry" />
        </mxCell>
        <mxCell id="j6FeLxDgwrB_pysaz1K0-18" value="Descuento 0" style="rounded=1;whiteSpace=wrap;html=1;" parent="1" vertex="1">
          <mxGeometry x="1070" y="350" width="120" height="60" as="geometry" />
        </mxCell>
        <mxCell id="j6FeLxDgwrB_pysaz1K0-41" style="edgeStyle=orthogonalEdgeStyle;rounded=0;orthogonalLoop=1;jettySize=auto;html=1;exitX=0.342;exitY=1;exitDx=0;exitDy=0;exitPerimeter=0;" parent="1" source="j6FeLxDgwrB_pysaz1K0-45" target="j6FeLxDgwrB_pysaz1K0-37" edge="1">
          <mxGeometry relative="1" as="geometry">
            <mxPoint x="590" y="690" as="sourcePoint" />
          </mxGeometry>
        </mxCell>
        <mxCell id="j6FeLxDgwrB_pysaz1K0-43" style="edgeStyle=orthogonalEdgeStyle;rounded=0;orthogonalLoop=1;jettySize=auto;html=1;exitX=0.5;exitY=1;exitDx=0;exitDy=0;entryX=0.25;entryY=0;entryDx=0;entryDy=0;" parent="1" source="j6FeLxDgwrB_pysaz1K0-37" target="j6FeLxDgwrB_pysaz1K0-40" edge="1">
          <mxGeometry relative="1" as="geometry" />
        </mxCell>
        <mxCell id="j6FeLxDgwrB_pysaz1K0-37" value="RETURN 500" style="rounded=1;whiteSpace=wrap;html=1;" parent="1" vertex="1">
          <mxGeometry x="548.5" y="640" width="120" height="60" as="geometry" />
        </mxCell>
        <mxCell id="j6FeLxDgwrB_pysaz1K0-42" style="edgeStyle=orthogonalEdgeStyle;rounded=0;orthogonalLoop=1;jettySize=auto;html=1;exitX=0.75;exitY=1;exitDx=0;exitDy=0;" parent="1" source="j6FeLxDgwrB_pysaz1K0-45" target="j6FeLxDgwrB_pysaz1K0-39" edge="1">
          <mxGeometry relative="1" as="geometry">
            <mxPoint x="793" y="690" as="sourcePoint" />
          </mxGeometry>
        </mxCell>
        <mxCell id="j6FeLxDgwrB_pysaz1K0-44" style="edgeStyle=orthogonalEdgeStyle;rounded=0;orthogonalLoop=1;jettySize=auto;html=1;exitX=0.5;exitY=1;exitDx=0;exitDy=0;entryX=0.75;entryY=0;entryDx=0;entryDy=0;" parent="1" source="j6FeLxDgwrB_pysaz1K0-39" target="j6FeLxDgwrB_pysaz1K0-40" edge="1">
          <mxGeometry relative="1" as="geometry" />
        </mxCell>
        <mxCell id="j6FeLxDgwrB_pysaz1K0-39" value="RETURN DESCUENTO" style="rounded=1;whiteSpace=wrap;html=1;" parent="1" vertex="1">
          <mxGeometry x="751.5" y="640" width="120" height="60" as="geometry" />
        </mxCell>
        <mxCell id="j6FeLxDgwrB_pysaz1K0-40" value="FIN" style="rounded=1;whiteSpace=wrap;html=1;" parent="1" vertex="1">
          <mxGeometry x="648.5" y="790" width="120" height="60" as="geometry" />
        </mxCell>
        <mxCell id="j6FeLxDgwrB_pysaz1K0-45" value="IF DESCUENTO&amp;nbsp; &amp;gt;500" style="rounded=1;whiteSpace=wrap;html=1;" parent="1" vertex="1">
          <mxGeometry x="650" y="470" width="120" height="60" as="geometry" />
        </mxCell>
        <mxCell id="j6FeLxDgwrB_pysaz1K0-57" style="edgeStyle=orthogonalEdgeStyle;rounded=0;orthogonalLoop=1;jettySize=auto;html=1;exitX=0.5;exitY=1;exitDx=0;exitDy=0;" parent="1" source="j6FeLxDgwrB_pysaz1K0-56" target="j6FeLxDgwrB_pysaz1K0-2" edge="1">
          <mxGeometry relative="1" as="geometry" />
        </mxCell>
        <mxCell id="j6FeLxDgwrB_pysaz1K0-62" style="edgeStyle=orthogonalEdgeStyle;rounded=0;orthogonalLoop=1;jettySize=auto;html=1;exitX=1;exitY=0.5;exitDx=0;exitDy=0;" parent="1" source="j6FeLxDgwrB_pysaz1K0-56" target="j6FeLxDgwrB_pysaz1K0-61" edge="1">
          <mxGeometry relative="1" as="geometry" />
        </mxCell>
        <mxCell id="j6FeLxDgwrB_pysaz1K0-56" value="SIWTCH" style="rounded=1;whiteSpace=wrap;html=1;" parent="1" vertex="1">
          <mxGeometry x="200" y="10" width="120" height="60" as="geometry" />
        </mxCell>
        <mxCell id="j6FeLxDgwrB_pysaz1K0-63" style="edgeStyle=orthogonalEdgeStyle;rounded=0;orthogonalLoop=1;jettySize=auto;html=1;exitX=0.5;exitY=1;exitDx=0;exitDy=0;entryX=0.5;entryY=0;entryDx=0;entryDy=0;" parent="1" source="j6FeLxDgwrB_pysaz1K0-61" target="j6FeLxDgwrB_pysaz1K0-7" edge="1">
          <mxGeometry relative="1" as="geometry" />
        </mxCell>
        <mxCell id="j6FeLxDgwrB_pysaz1K0-65" style="edgeStyle=orthogonalEdgeStyle;rounded=0;orthogonalLoop=1;jettySize=auto;html=1;exitX=1;exitY=0.5;exitDx=0;exitDy=0;entryX=0;entryY=0.5;entryDx=0;entryDy=0;" parent="1" source="j6FeLxDgwrB_pysaz1K0-61" target="j6FeLxDgwrB_pysaz1K0-64" edge="1">
          <mxGeometry relative="1" as="geometry" />
        </mxCell>
        <mxCell id="j6FeLxDgwrB_pysaz1K0-61" value="NO A" style="rounded=1;whiteSpace=wrap;html=1;" parent="1" vertex="1">
          <mxGeometry x="510" y="10" width="120" height="60" as="geometry" />
        </mxCell>
        <mxCell id="j6FeLxDgwrB_pysaz1K0-66" style="edgeStyle=orthogonalEdgeStyle;rounded=0;orthogonalLoop=1;jettySize=auto;html=1;exitX=0.5;exitY=1;exitDx=0;exitDy=0;entryX=0.5;entryY=0;entryDx=0;entryDy=0;" parent="1" source="j6FeLxDgwrB_pysaz1K0-64" target="j6FeLxDgwrB_pysaz1K0-12" edge="1">
          <mxGeometry relative="1" as="geometry" />
        </mxCell>
        <mxCell id="j6FeLxDgwrB_pysaz1K0-68" style="edgeStyle=orthogonalEdgeStyle;rounded=0;orthogonalLoop=1;jettySize=auto;html=1;exitX=1;exitY=0.5;exitDx=0;exitDy=0;" parent="1" source="j6FeLxDgwrB_pysaz1K0-64" target="j6FeLxDgwrB_pysaz1K0-67" edge="1">
          <mxGeometry relative="1" as="geometry" />
        </mxCell>
        <mxCell id="j6FeLxDgwrB_pysaz1K0-64" value="NO B" style="rounded=1;whiteSpace=wrap;html=1;" parent="1" vertex="1">
          <mxGeometry x="820" y="10" width="120" height="60" as="geometry" />
        </mxCell>
        <mxCell id="j6FeLxDgwrB_pysaz1K0-69" style="edgeStyle=orthogonalEdgeStyle;rounded=0;orthogonalLoop=1;jettySize=auto;html=1;exitX=0.5;exitY=1;exitDx=0;exitDy=0;entryX=0.5;entryY=0;entryDx=0;entryDy=0;" parent="1" source="j6FeLxDgwrB_pysaz1K0-67" target="j6FeLxDgwrB_pysaz1K0-18" edge="1">
          <mxGeometry relative="1" as="geometry">
            <mxPoint x="1130" y="120" as="targetPoint" />
          </mxGeometry>
        </mxCell>
        <mxCell id="j6FeLxDgwrB_pysaz1K0-67" value="NO C" style="rounded=1;whiteSpace=wrap;html=1;" parent="1" vertex="1">
          <mxGeometry x="1070" y="10" width="120" height="60" as="geometry" />
        </mxCell>
        <mxCell id="Bwqu2vsgAgHkEBCCEPfg-3" style="edgeStyle=orthogonalEdgeStyle;rounded=0;orthogonalLoop=1;jettySize=auto;html=1;exitX=1;exitY=0.5;exitDx=0;exitDy=0;fontSize=21;fontColor=#FFFFFF;" parent="1" source="Bwqu2vsgAgHkEBCCEPfg-1" target="Bwqu2vsgAgHkEBCCEPfg-2" edge="1">
          <mxGeometry relative="1" as="geometry" />
        </mxCell>
        <mxCell id="Bwqu2vsgAgHkEBCCEPfg-1" value="&lt;font color=&quot;#ffffff&quot; style=&quot;font-size: 21px;&quot;&gt;1&lt;/font&gt;" style="ellipse;whiteSpace=wrap;html=1;aspect=fixed;strokeColor=#000099;fillColor=#0000CC;" parent="1" vertex="1">
          <mxGeometry x="1350" y="145" width="50" height="50" as="geometry" />
        </mxCell>
        <mxCell id="Bwqu2vsgAgHkEBCCEPfg-5" style="edgeStyle=orthogonalEdgeStyle;rounded=0;orthogonalLoop=1;jettySize=auto;html=1;exitX=0.5;exitY=1;exitDx=0;exitDy=0;fontSize=21;fontColor=#FFFFFF;" parent="1" source="Bwqu2vsgAgHkEBCCEPfg-2" target="Bwqu2vsgAgHkEBCCEPfg-4" edge="1">
          <mxGeometry relative="1" as="geometry" />
        </mxCell>
        <mxCell id="Bwqu2vsgAgHkEBCCEPfg-2" value="&lt;font color=&quot;#ffffff&quot; style=&quot;font-size: 21px;&quot;&gt;2&lt;/font&gt;" style="ellipse;whiteSpace=wrap;html=1;aspect=fixed;strokeColor=#000099;fillColor=#0000CC;fontSize=21;fontColor=#FFFFFF;" parent="1" vertex="1">
          <mxGeometry x="1460" y="145" width="50" height="50" as="geometry" />
        </mxCell>
        <mxCell id="Bwqu2vsgAgHkEBCCEPfg-7" style="edgeStyle=orthogonalEdgeStyle;rounded=0;orthogonalLoop=1;jettySize=auto;html=1;exitX=0.5;exitY=1;exitDx=0;exitDy=0;fontSize=21;fontColor=#FFFFFF;" parent="1" source="Bwqu2vsgAgHkEBCCEPfg-4" target="Bwqu2vsgAgHkEBCCEPfg-6" edge="1">
          <mxGeometry relative="1" as="geometry" />
        </mxCell>
        <mxCell id="GSDasPkCe4dRCQIhtN8K-2" style="rounded=0;orthogonalLoop=1;jettySize=auto;html=1;exitX=1;exitY=0.5;exitDx=0;exitDy=0;" edge="1" parent="1" source="Bwqu2vsgAgHkEBCCEPfg-4" target="GSDasPkCe4dRCQIhtN8K-1">
          <mxGeometry relative="1" as="geometry" />
        </mxCell>
        <mxCell id="Bwqu2vsgAgHkEBCCEPfg-4" value="&lt;font color=&quot;#ffffff&quot; style=&quot;font-size: 21px;&quot;&gt;3&lt;/font&gt;" style="ellipse;whiteSpace=wrap;html=1;aspect=fixed;strokeColor=#000099;fillColor=#0000CC;fontSize=21;fontColor=#FFFFFF;" parent="1" vertex="1">
          <mxGeometry x="1459" y="238" width="50" height="50" as="geometry" />
        </mxCell>
        <mxCell id="Bwqu2vsgAgHkEBCCEPfg-10" style="edgeStyle=none;rounded=0;orthogonalLoop=1;jettySize=auto;html=1;exitX=0;exitY=1;exitDx=0;exitDy=0;entryX=1;entryY=0;entryDx=0;entryDy=0;fontSize=21;fontColor=#FFFFFF;" parent="1" source="Bwqu2vsgAgHkEBCCEPfg-6" target="Bwqu2vsgAgHkEBCCEPfg-8" edge="1">
          <mxGeometry relative="1" as="geometry" />
        </mxCell>
        <mxCell id="Bwqu2vsgAgHkEBCCEPfg-12" style="edgeStyle=none;rounded=0;orthogonalLoop=1;jettySize=auto;html=1;exitX=1;exitY=1;exitDx=0;exitDy=0;fontSize=21;fontColor=#FFFFFF;" parent="1" source="Bwqu2vsgAgHkEBCCEPfg-6" target="Bwqu2vsgAgHkEBCCEPfg-11" edge="1">
          <mxGeometry relative="1" as="geometry" />
        </mxCell>
        <mxCell id="Bwqu2vsgAgHkEBCCEPfg-6" value="&lt;font color=&quot;#ffffff&quot; style=&quot;font-size: 21px;&quot;&gt;4&lt;/font&gt;" style="ellipse;whiteSpace=wrap;html=1;aspect=fixed;strokeColor=#000099;fillColor=#0000CC;fontSize=21;fontColor=#FFFFFF;" parent="1" vertex="1">
          <mxGeometry x="1459" y="335" width="50" height="50" as="geometry" />
        </mxCell>
        <mxCell id="Bwqu2vsgAgHkEBCCEPfg-17" style="edgeStyle=orthogonalEdgeStyle;rounded=0;orthogonalLoop=1;jettySize=auto;html=1;exitX=0.5;exitY=1;exitDx=0;exitDy=0;entryX=0;entryY=0.5;entryDx=0;entryDy=0;fontSize=21;fontColor=#990000;curved=1;" parent="1" source="Bwqu2vsgAgHkEBCCEPfg-8" target="Bwqu2vsgAgHkEBCCEPfg-15" edge="1">
          <mxGeometry relative="1" as="geometry" />
        </mxCell>
        <mxCell id="Bwqu2vsgAgHkEBCCEPfg-8" value="&lt;font color=&quot;#ffffff&quot; style=&quot;font-size: 21px;&quot;&gt;6&lt;/font&gt;" style="ellipse;whiteSpace=wrap;html=1;aspect=fixed;strokeColor=#000099;fillColor=#0000CC;fontSize=21;fontColor=#FFFFFF;" parent="1" vertex="1">
          <mxGeometry x="1380" y="420" width="50" height="50" as="geometry" />
        </mxCell>
        <mxCell id="Bwqu2vsgAgHkEBCCEPfg-16" style="edgeStyle=none;rounded=0;orthogonalLoop=1;jettySize=auto;html=1;exitX=1;exitY=1;exitDx=0;exitDy=0;fontSize=21;fontColor=#990000;" parent="1" source="Bwqu2vsgAgHkEBCCEPfg-11" target="Bwqu2vsgAgHkEBCCEPfg-15" edge="1">
          <mxGeometry relative="1" as="geometry" />
        </mxCell>
        <mxCell id="Bwqu2vsgAgHkEBCCEPfg-11" value="&lt;font color=&quot;#ffffff&quot; style=&quot;font-size: 21px;&quot;&gt;5&lt;/font&gt;" style="ellipse;whiteSpace=wrap;html=1;aspect=fixed;strokeColor=#000099;fillColor=#0000CC;fontSize=21;fontColor=#FFFFFF;" parent="1" vertex="1">
          <mxGeometry x="1550" y="430" width="50" height="50" as="geometry" />
        </mxCell>
        <mxCell id="Bwqu2vsgAgHkEBCCEPfg-13" value="&lt;font color=&quot;#336600&quot;&gt;V&lt;/font&gt;" style="text;html=1;align=center;verticalAlign=middle;resizable=0;points=[];autosize=1;strokeColor=none;fillColor=none;fontSize=21;fontColor=#FFFFFF;" parent="1" vertex="1">
          <mxGeometry x="1520" y="370" width="40" height="40" as="geometry" />
        </mxCell>
        <mxCell id="Bwqu2vsgAgHkEBCCEPfg-14" value="&lt;font color=&quot;#990000&quot;&gt;F&lt;/font&gt;" style="text;html=1;align=center;verticalAlign=middle;resizable=0;points=[];autosize=1;strokeColor=none;fillColor=none;fontSize=21;fontColor=#336600;" parent="1" vertex="1">
          <mxGeometry x="1400" y="370" width="40" height="40" as="geometry" />
        </mxCell>
        <mxCell id="GSDasPkCe4dRCQIhtN8K-30" style="edgeStyle=orthogonalEdgeStyle;curved=1;rounded=0;orthogonalLoop=1;jettySize=auto;html=1;exitX=0.5;exitY=1;exitDx=0;exitDy=0;" edge="1" parent="1" source="Bwqu2vsgAgHkEBCCEPfg-15" target="GSDasPkCe4dRCQIhtN8K-29">
          <mxGeometry relative="1" as="geometry" />
        </mxCell>
        <mxCell id="Bwqu2vsgAgHkEBCCEPfg-15" value="&lt;font color=&quot;#ffffff&quot; style=&quot;font-size: 21px;&quot;&gt;7&lt;/font&gt;" style="ellipse;whiteSpace=wrap;html=1;aspect=fixed;strokeColor=#000099;fillColor=#0000CC;fontSize=21;fontColor=#FFFFFF;" parent="1" vertex="1">
          <mxGeometry x="1665" y="575" width="50" height="50" as="geometry" />
        </mxCell>
        <mxCell id="Bwqu2vsgAgHkEBCCEPfg-18" value="&lt;font color=&quot;#336600&quot;&gt;V&lt;/font&gt;" style="text;html=1;align=center;verticalAlign=middle;resizable=0;points=[];autosize=1;strokeColor=none;fillColor=none;fontSize=21;fontColor=#FFFFFF;" parent="1" vertex="1">
          <mxGeometry x="1440" y="288" width="40" height="40" as="geometry" />
        </mxCell>
        <mxCell id="GSDasPkCe4dRCQIhtN8K-4" style="edgeStyle=none;rounded=0;orthogonalLoop=1;jettySize=auto;html=1;exitX=0.5;exitY=1;exitDx=0;exitDy=0;" edge="1" parent="1" source="GSDasPkCe4dRCQIhtN8K-1" target="GSDasPkCe4dRCQIhtN8K-3">
          <mxGeometry relative="1" as="geometry" />
        </mxCell>
        <mxCell id="GSDasPkCe4dRCQIhtN8K-13" style="edgeStyle=none;rounded=0;orthogonalLoop=1;jettySize=auto;html=1;exitX=1;exitY=0.5;exitDx=0;exitDy=0;" edge="1" parent="1" source="GSDasPkCe4dRCQIhtN8K-1" target="GSDasPkCe4dRCQIhtN8K-12">
          <mxGeometry relative="1" as="geometry" />
        </mxCell>
        <mxCell id="GSDasPkCe4dRCQIhtN8K-1" value="&lt;font color=&quot;#ffffff&quot; style=&quot;font-size: 21px;&quot;&gt;8&lt;/font&gt;" style="ellipse;whiteSpace=wrap;html=1;aspect=fixed;strokeColor=#000099;fillColor=#0000CC;fontSize=21;fontColor=#FFFFFF;" vertex="1" parent="1">
          <mxGeometry x="1640" y="240" width="50" height="50" as="geometry" />
        </mxCell>
        <mxCell id="GSDasPkCe4dRCQIhtN8K-5" style="edgeStyle=none;rounded=0;orthogonalLoop=1;jettySize=auto;html=1;exitX=0;exitY=1;exitDx=0;exitDy=0;entryX=0.997;entryY=0.251;entryDx=0;entryDy=0;entryPerimeter=0;" edge="1" parent="1" source="GSDasPkCe4dRCQIhtN8K-3" target="Bwqu2vsgAgHkEBCCEPfg-11">
          <mxGeometry relative="1" as="geometry" />
        </mxCell>
        <mxCell id="GSDasPkCe4dRCQIhtN8K-8" style="edgeStyle=none;rounded=0;orthogonalLoop=1;jettySize=auto;html=1;exitX=1;exitY=1;exitDx=0;exitDy=0;" edge="1" parent="1" source="GSDasPkCe4dRCQIhtN8K-3" target="GSDasPkCe4dRCQIhtN8K-7">
          <mxGeometry relative="1" as="geometry" />
        </mxCell>
        <mxCell id="GSDasPkCe4dRCQIhtN8K-3" value="&lt;font color=&quot;#ffffff&quot; style=&quot;font-size: 21px;&quot;&gt;9&lt;/font&gt;" style="ellipse;whiteSpace=wrap;html=1;aspect=fixed;strokeColor=#000099;fillColor=#0000CC;fontSize=21;fontColor=#FFFFFF;" vertex="1" parent="1">
          <mxGeometry x="1640" y="335" width="50" height="50" as="geometry" />
        </mxCell>
        <mxCell id="GSDasPkCe4dRCQIhtN8K-6" value="&lt;font color=&quot;#990000&quot;&gt;F&lt;/font&gt;" style="text;html=1;align=center;verticalAlign=middle;resizable=0;points=[];autosize=1;strokeColor=none;fillColor=none;fontSize=21;fontColor=#336600;" vertex="1" parent="1">
          <mxGeometry x="1600" y="371" width="40" height="40" as="geometry" />
        </mxCell>
        <mxCell id="GSDasPkCe4dRCQIhtN8K-10" style="edgeStyle=none;rounded=0;orthogonalLoop=1;jettySize=auto;html=1;exitX=0.5;exitY=1;exitDx=0;exitDy=0;" edge="1" parent="1" source="GSDasPkCe4dRCQIhtN8K-7" target="Bwqu2vsgAgHkEBCCEPfg-15">
          <mxGeometry relative="1" as="geometry" />
        </mxCell>
        <mxCell id="GSDasPkCe4dRCQIhtN8K-7" value="&lt;font color=&quot;#ffffff&quot; style=&quot;font-size: 21px;&quot;&gt;10&lt;/font&gt;" style="ellipse;whiteSpace=wrap;html=1;aspect=fixed;strokeColor=#000099;fillColor=#0000CC;fontSize=21;fontColor=#FFFFFF;" vertex="1" parent="1">
          <mxGeometry x="1710" y="430" width="50" height="50" as="geometry" />
        </mxCell>
        <mxCell id="GSDasPkCe4dRCQIhtN8K-9" value="&lt;font color=&quot;#336600&quot;&gt;V&lt;/font&gt;" style="text;html=1;align=center;verticalAlign=middle;resizable=0;points=[];autosize=1;strokeColor=none;fillColor=none;fontSize=21;fontColor=#FFFFFF;" vertex="1" parent="1">
          <mxGeometry x="1710" y="371" width="40" height="40" as="geometry" />
        </mxCell>
        <mxCell id="GSDasPkCe4dRCQIhtN8K-11" value="&lt;font color=&quot;#990000&quot;&gt;F&lt;/font&gt;" style="text;html=1;align=center;verticalAlign=middle;resizable=0;points=[];autosize=1;strokeColor=none;fillColor=none;fontSize=21;fontColor=#336600;" vertex="1" parent="1">
          <mxGeometry x="1560" y="220" width="40" height="40" as="geometry" />
        </mxCell>
        <mxCell id="GSDasPkCe4dRCQIhtN8K-15" style="edgeStyle=none;rounded=0;orthogonalLoop=1;jettySize=auto;html=1;exitX=0.5;exitY=1;exitDx=0;exitDy=0;" edge="1" parent="1" source="GSDasPkCe4dRCQIhtN8K-12" target="GSDasPkCe4dRCQIhtN8K-14">
          <mxGeometry relative="1" as="geometry" />
        </mxCell>
        <mxCell id="GSDasPkCe4dRCQIhtN8K-26" style="edgeStyle=none;rounded=0;orthogonalLoop=1;jettySize=auto;html=1;exitX=1;exitY=0.5;exitDx=0;exitDy=0;" edge="1" parent="1" source="GSDasPkCe4dRCQIhtN8K-12" target="GSDasPkCe4dRCQIhtN8K-25">
          <mxGeometry relative="1" as="geometry" />
        </mxCell>
        <mxCell id="GSDasPkCe4dRCQIhtN8K-12" value="&lt;font color=&quot;#ffffff&quot; style=&quot;font-size: 21px;&quot;&gt;11&lt;/font&gt;" style="ellipse;whiteSpace=wrap;html=1;aspect=fixed;strokeColor=#000099;fillColor=#0000CC;fontSize=21;fontColor=#FFFFFF;" vertex="1" parent="1">
          <mxGeometry x="1800" y="240" width="50" height="50" as="geometry" />
        </mxCell>
        <mxCell id="GSDasPkCe4dRCQIhtN8K-16" style="edgeStyle=none;rounded=0;orthogonalLoop=1;jettySize=auto;html=1;exitX=0;exitY=1;exitDx=0;exitDy=0;entryX=1;entryY=0;entryDx=0;entryDy=0;" edge="1" parent="1" source="GSDasPkCe4dRCQIhtN8K-14" target="GSDasPkCe4dRCQIhtN8K-7">
          <mxGeometry relative="1" as="geometry" />
        </mxCell>
        <mxCell id="GSDasPkCe4dRCQIhtN8K-19" style="edgeStyle=none;rounded=0;orthogonalLoop=1;jettySize=auto;html=1;exitX=1;exitY=1;exitDx=0;exitDy=0;" edge="1" parent="1" source="GSDasPkCe4dRCQIhtN8K-14" target="GSDasPkCe4dRCQIhtN8K-18">
          <mxGeometry relative="1" as="geometry" />
        </mxCell>
        <mxCell id="GSDasPkCe4dRCQIhtN8K-14" value="&lt;font color=&quot;#ffffff&quot; style=&quot;font-size: 21px;&quot;&gt;12&lt;/font&gt;" style="ellipse;whiteSpace=wrap;html=1;aspect=fixed;strokeColor=#000099;fillColor=#0000CC;fontSize=21;fontColor=#FFFFFF;" vertex="1" parent="1">
          <mxGeometry x="1800" y="335" width="50" height="50" as="geometry" />
        </mxCell>
        <mxCell id="GSDasPkCe4dRCQIhtN8K-17" value="&lt;font color=&quot;#990000&quot;&gt;F&lt;/font&gt;" style="text;html=1;align=center;verticalAlign=middle;resizable=0;points=[];autosize=1;strokeColor=none;fillColor=none;fontSize=21;fontColor=#336600;" vertex="1" parent="1">
          <mxGeometry x="1750" y="371" width="40" height="40" as="geometry" />
        </mxCell>
        <mxCell id="GSDasPkCe4dRCQIhtN8K-21" style="edgeStyle=none;rounded=0;orthogonalLoop=1;jettySize=auto;html=1;exitX=0.5;exitY=1;exitDx=0;exitDy=0;entryX=1.013;entryY=0.287;entryDx=0;entryDy=0;entryPerimeter=0;" edge="1" parent="1" source="GSDasPkCe4dRCQIhtN8K-18" target="Bwqu2vsgAgHkEBCCEPfg-15">
          <mxGeometry relative="1" as="geometry" />
        </mxCell>
        <mxCell id="GSDasPkCe4dRCQIhtN8K-18" value="&lt;font color=&quot;#ffffff&quot; style=&quot;font-size: 21px;&quot;&gt;13&lt;/font&gt;" style="ellipse;whiteSpace=wrap;html=1;aspect=fixed;strokeColor=#000099;fillColor=#0000CC;fontSize=21;fontColor=#FFFFFF;" vertex="1" parent="1">
          <mxGeometry x="1870" y="430" width="50" height="50" as="geometry" />
        </mxCell>
        <mxCell id="GSDasPkCe4dRCQIhtN8K-20" value="&lt;font color=&quot;#336600&quot;&gt;V&lt;/font&gt;" style="text;html=1;align=center;verticalAlign=middle;resizable=0;points=[];autosize=1;strokeColor=none;fillColor=none;fontSize=21;fontColor=#FFFFFF;" vertex="1" parent="1">
          <mxGeometry x="1860" y="370" width="40" height="40" as="geometry" />
        </mxCell>
        <mxCell id="GSDasPkCe4dRCQIhtN8K-22" value="&lt;font color=&quot;#990000&quot;&gt;F&lt;/font&gt;" style="text;html=1;align=center;verticalAlign=middle;resizable=0;points=[];autosize=1;strokeColor=none;fillColor=none;fontSize=21;fontColor=#336600;" vertex="1" parent="1">
          <mxGeometry x="1720" y="220" width="40" height="40" as="geometry" />
        </mxCell>
        <mxCell id="GSDasPkCe4dRCQIhtN8K-23" value="&lt;font color=&quot;#336600&quot;&gt;V&lt;/font&gt;" style="text;html=1;align=center;verticalAlign=middle;resizable=0;points=[];autosize=1;strokeColor=none;fillColor=none;fontSize=21;fontColor=#FFFFFF;" vertex="1" parent="1">
          <mxGeometry x="1625" y="290" width="40" height="40" as="geometry" />
        </mxCell>
        <mxCell id="GSDasPkCe4dRCQIhtN8K-24" value="&lt;font color=&quot;#336600&quot;&gt;V&lt;/font&gt;" style="text;html=1;align=center;verticalAlign=middle;resizable=0;points=[];autosize=1;strokeColor=none;fillColor=none;fontSize=21;fontColor=#FFFFFF;" vertex="1" parent="1">
          <mxGeometry x="1780" y="288" width="40" height="40" as="geometry" />
        </mxCell>
        <mxCell id="GSDasPkCe4dRCQIhtN8K-28" style="edgeStyle=orthogonalEdgeStyle;curved=1;rounded=0;orthogonalLoop=1;jettySize=auto;html=1;exitX=0.5;exitY=1;exitDx=0;exitDy=0;entryX=1;entryY=0.5;entryDx=0;entryDy=0;" edge="1" parent="1" source="GSDasPkCe4dRCQIhtN8K-25" target="Bwqu2vsgAgHkEBCCEPfg-15">
          <mxGeometry relative="1" as="geometry" />
        </mxCell>
        <mxCell id="GSDasPkCe4dRCQIhtN8K-25" value="&lt;font color=&quot;#ffffff&quot; style=&quot;font-size: 21px;&quot;&gt;14&lt;/font&gt;" style="ellipse;whiteSpace=wrap;html=1;aspect=fixed;strokeColor=#000099;fillColor=#0000CC;fontSize=21;fontColor=#FFFFFF;" vertex="1" parent="1">
          <mxGeometry x="1980" y="240" width="50" height="50" as="geometry" />
        </mxCell>
        <mxCell id="GSDasPkCe4dRCQIhtN8K-27" value="&lt;font color=&quot;#990000&quot;&gt;F&lt;/font&gt;" style="text;html=1;align=center;verticalAlign=middle;resizable=0;points=[];autosize=1;strokeColor=none;fillColor=none;fontSize=21;fontColor=#336600;" vertex="1" parent="1">
          <mxGeometry x="1875" y="220" width="40" height="40" as="geometry" />
        </mxCell>
        <mxCell id="GSDasPkCe4dRCQIhtN8K-32" style="rounded=0;orthogonalLoop=1;jettySize=auto;html=1;exitX=0;exitY=1;exitDx=0;exitDy=0;" edge="1" parent="1" source="GSDasPkCe4dRCQIhtN8K-29" target="GSDasPkCe4dRCQIhtN8K-31">
          <mxGeometry relative="1" as="geometry" />
        </mxCell>
        <mxCell id="GSDasPkCe4dRCQIhtN8K-34" style="rounded=0;orthogonalLoop=1;jettySize=auto;html=1;exitX=1;exitY=1;exitDx=0;exitDy=0;" edge="1" parent="1" source="GSDasPkCe4dRCQIhtN8K-29" target="GSDasPkCe4dRCQIhtN8K-33">
          <mxGeometry relative="1" as="geometry" />
        </mxCell>
        <mxCell id="GSDasPkCe4dRCQIhtN8K-29" value="&lt;font color=&quot;#ffffff&quot; style=&quot;font-size: 21px;&quot;&gt;15&lt;/font&gt;" style="ellipse;whiteSpace=wrap;html=1;aspect=fixed;strokeColor=#000099;fillColor=#0000CC;fontSize=21;fontColor=#FFFFFF;" vertex="1" parent="1">
          <mxGeometry x="1665" y="660" width="50" height="50" as="geometry" />
        </mxCell>
        <mxCell id="GSDasPkCe4dRCQIhtN8K-38" style="edgeStyle=none;rounded=0;orthogonalLoop=1;jettySize=auto;html=1;exitX=1;exitY=1;exitDx=0;exitDy=0;" edge="1" parent="1" source="GSDasPkCe4dRCQIhtN8K-31" target="GSDasPkCe4dRCQIhtN8K-37">
          <mxGeometry relative="1" as="geometry" />
        </mxCell>
        <mxCell id="GSDasPkCe4dRCQIhtN8K-31" value="&lt;font color=&quot;#ffffff&quot; style=&quot;font-size: 21px;&quot;&gt;17&lt;/font&gt;" style="ellipse;whiteSpace=wrap;html=1;aspect=fixed;strokeColor=#000099;fillColor=#0000CC;fontSize=21;fontColor=#FFFFFF;" vertex="1" parent="1">
          <mxGeometry x="1585" y="735" width="50" height="50" as="geometry" />
        </mxCell>
        <mxCell id="GSDasPkCe4dRCQIhtN8K-39" style="edgeStyle=none;rounded=0;orthogonalLoop=1;jettySize=auto;html=1;exitX=0;exitY=1;exitDx=0;exitDy=0;" edge="1" parent="1" source="GSDasPkCe4dRCQIhtN8K-33" target="GSDasPkCe4dRCQIhtN8K-37">
          <mxGeometry relative="1" as="geometry" />
        </mxCell>
        <mxCell id="GSDasPkCe4dRCQIhtN8K-33" value="&lt;font color=&quot;#ffffff&quot; style=&quot;font-size: 21px;&quot;&gt;16&lt;/font&gt;" style="ellipse;whiteSpace=wrap;html=1;aspect=fixed;strokeColor=#000099;fillColor=#0000CC;fontSize=21;fontColor=#FFFFFF;" vertex="1" parent="1">
          <mxGeometry x="1745" y="735" width="50" height="50" as="geometry" />
        </mxCell>
        <mxCell id="GSDasPkCe4dRCQIhtN8K-35" value="&lt;font color=&quot;#990000&quot;&gt;F&lt;/font&gt;" style="text;html=1;align=center;verticalAlign=middle;resizable=0;points=[];autosize=1;strokeColor=none;fillColor=none;fontSize=21;fontColor=#336600;" vertex="1" parent="1">
          <mxGeometry x="1614" y="690" width="40" height="40" as="geometry" />
        </mxCell>
        <mxCell id="GSDasPkCe4dRCQIhtN8K-36" value="&lt;font color=&quot;#336600&quot;&gt;V&lt;/font&gt;" style="text;html=1;align=center;verticalAlign=middle;resizable=0;points=[];autosize=1;strokeColor=none;fillColor=none;fontSize=21;fontColor=#FFFFFF;" vertex="1" parent="1">
          <mxGeometry x="1730" y="690" width="40" height="40" as="geometry" />
        </mxCell>
        <mxCell id="GSDasPkCe4dRCQIhtN8K-37" value="&lt;font color=&quot;#ffffff&quot; style=&quot;font-size: 21px;&quot;&gt;18&lt;/font&gt;" style="ellipse;whiteSpace=wrap;html=1;aspect=fixed;strokeColor=#000099;fillColor=#0000CC;fontSize=21;fontColor=#FFFFFF;" vertex="1" parent="1">
          <mxGeometry x="1665" y="800" width="50" height="50" as="geometry" />
        </mxCell>
      </root>
    </mxGraphModel>
  </diagram>
</mxfile>
